<svg width="136" height="136" viewBox="0 0 136 136" fill="none" xmlns="http://www.w3.org/2000/svg">
<path fill-rule="evenodd" clip-rule="evenodd" d="M68.2097 2.13463C65.2846 2.13463 62.4794 3.29661 60.4111 5.36494C58.3427 7.43327 57.1807 10.2385 57.1807 13.1636V14.1918L57.1807 14.196C57.1721 16.3504 56.5338 18.4552 55.3442 20.2514C54.1547 22.0476 52.4659 23.4568 50.4857 24.3055C50.3529 24.3624 50.2098 24.3918 50.0653 24.3918H49.8005C47.8371 25.2098 45.6774 25.4442 43.5813 25.0641C41.4094 24.6704 39.4054 23.635 37.8275 22.0915L37.8191 22.0833L37.4562 21.7204C36.432 20.6949 35.2152 19.881 33.8763 19.326C32.5374 18.771 31.1022 18.4853 29.6528 18.4853C28.2035 18.4853 26.7683 18.771 25.4294 19.326C24.0905 19.881 22.8742 20.6945 21.8499 21.72L21.849 21.7208C20.8236 22.7451 20.0101 23.9615 19.4551 25.3004C18.9001 26.6392 18.6144 28.0744 18.6144 29.5238C18.6144 30.9732 18.9001 32.4083 19.4551 33.7472C20.0101 35.0861 20.8236 36.3025 21.849 37.3268L22.2207 37.6984C23.7641 39.2763 24.7994 41.2804 25.1932 43.4522C25.585 45.6129 25.3239 47.8412 24.4435 49.8524C23.6761 51.9194 22.3077 53.7098 20.5139 54.9927C18.711 56.2823 16.5618 56.9995 14.3458 57.0514L14.3208 57.0517H13.7765C10.8514 57.0517 8.04618 58.2136 5.97785 60.282C3.90952 62.3503 2.74755 65.1556 2.74755 68.0806C2.74755 71.0057 3.90952 73.8109 5.97785 75.8793C8.04618 77.9476 10.8514 79.1096 13.7765 79.1096H14.8089C16.9633 79.1182 19.0681 79.7565 20.8643 80.9461C22.659 82.1346 24.0672 83.8215 24.9161 85.7994C25.8055 87.8173 26.0705 90.0553 25.6771 92.2252C25.2833 94.397 24.2479 96.4011 22.7045 97.979L22.6962 97.9874L22.3333 98.3502C21.3079 99.3745 20.494 100.591 19.9389 101.93C19.3839 103.269 19.0982 104.704 19.0982 106.154C19.0982 107.603 19.3839 109.038 19.9389 110.377C20.494 111.716 21.3074 112.932 22.3329 113.957L22.3337 113.957C23.358 114.983 24.5744 115.796 25.9133 116.351C27.2522 116.906 28.6873 117.192 30.1367 117.192C31.5861 117.192 33.0212 116.906 34.3601 116.351C35.699 115.796 36.9154 114.983 37.9397 113.957L38.3113 113.586C39.8892 112.042 41.8933 111.007 44.0651 110.613C46.2259 110.221 48.4541 110.483 50.4654 111.363C52.5324 112.13 54.3227 113.499 55.6057 115.293C56.8952 117.096 57.6125 119.245 57.6643 121.461L57.6646 121.486V122.03C57.6646 124.955 58.8266 127.76 60.8949 129.829C62.9632 131.897 65.7685 133.059 68.6935 133.059C71.6186 133.059 74.4239 131.897 76.4922 129.829C78.5605 127.76 79.7225 124.955 79.7225 122.03V121.002L79.7225 120.998C79.7311 118.843 80.3694 116.738 81.559 114.942C82.7474 113.148 84.4341 111.739 86.4118 110.891C88.4298 110.001 90.668 109.736 92.8381 110.129C95.0099 110.523 97.014 111.559 98.5919 113.102L98.6003 113.11L98.9631 113.473C99.9874 114.499 101.204 115.312 102.543 115.868C103.882 116.423 105.317 116.708 106.767 116.708C108.216 116.708 109.651 116.423 110.99 115.868C112.329 115.312 113.545 114.499 114.57 113.474L114.57 113.473C115.596 112.448 116.409 111.232 116.964 109.893C117.519 108.554 117.805 107.119 117.805 105.67C117.805 104.22 117.519 102.785 116.964 101.446C116.409 100.107 115.596 98.8911 114.57 97.8668L114.199 97.4951C112.655 95.9173 111.62 93.9132 111.226 91.7414C110.833 89.5712 111.098 87.3331 111.987 85.315C112.836 83.3373 114.244 81.6506 116.039 80.4622C117.835 79.2727 119.94 78.6343 122.094 78.6257L122.099 78.6257L122.643 78.6257C125.568 78.6257 128.373 77.4637 130.442 75.3954C132.51 73.3271 133.672 70.5218 133.672 67.5968C133.672 64.6717 132.51 61.8665 130.442 59.7981C128.373 57.7298 125.568 56.5678 122.643 56.5678H121.615L121.61 56.5678C119.456 56.5592 117.351 55.9209 115.555 54.7313C113.759 53.5418 112.35 51.853 111.501 49.8728C111.444 49.74 111.415 49.5969 111.415 49.4524V49.1876C110.597 47.2242 110.362 45.0645 110.742 42.9683C111.136 40.7965 112.171 38.7925 113.715 37.2146L113.723 37.2062L114.086 36.8433C115.112 35.819 115.925 34.6022 116.48 33.2634C117.035 31.9245 117.321 30.4893 117.321 29.0399C117.321 27.5906 117.035 26.1554 116.48 24.8165C115.925 23.4776 115.112 22.2612 114.086 21.2369L114.086 21.2361C113.061 20.2107 111.845 19.3972 110.506 18.8422C109.167 18.2871 107.732 18.0015 106.283 18.0015C104.833 18.0015 103.398 18.2871 102.059 18.8422C100.72 19.3972 99.504 20.2107 98.4797 21.2361L98.1081 21.6077C96.5302 23.1512 94.5261 24.1865 92.3543 24.5803C90.1844 24.9737 87.9464 24.7087 85.9284 23.8194C83.9505 22.9705 82.2636 21.5622 81.0751 19.7676C79.8856 17.9714 79.2472 15.8665 79.2386 13.7122L79.2386 13.7079V13.1636C79.2386 10.2385 78.0767 7.43327 76.0083 5.36494C73.94 3.29661 71.1348 2.13463 68.2097 2.13463ZM58.9016 3.85552C61.3703 1.38687 64.7185 0 68.2097 0C71.7009 0 75.0491 1.38687 77.5177 3.85552C79.9864 6.32417 81.3733 9.67238 81.3733 13.1636L81.3733 13.7037C81.3733 13.7043 81.3733 13.705 81.3733 13.7056C81.3806 15.443 81.8956 17.1404 82.8549 18.5889C83.8145 20.038 85.177 21.1749 86.7745 21.8596L86.785 21.8641C88.4142 22.5831 90.2213 22.7976 91.9734 22.4799C93.7237 22.1625 95.339 21.3287 96.6114 20.0856C96.6127 20.0843 96.614 20.083 96.6153 20.0817L96.9694 19.7275C96.9696 19.7274 96.9693 19.7277 96.9694 19.7275C98.1919 18.5038 99.644 17.5326 101.242 16.8703C102.84 16.2078 104.553 15.8668 106.283 15.8668C108.013 15.8668 109.726 16.2078 111.324 16.8703C112.921 17.5325 114.373 18.5032 115.595 19.7267C116.819 20.9492 117.79 22.401 118.452 23.9991C119.115 25.5971 119.456 27.31 119.456 29.0399C119.456 30.7698 119.115 32.4828 118.452 34.0808C117.79 35.6788 116.819 37.1306 115.595 38.3532L115.241 38.7073C115.24 38.7087 115.238 38.71 115.237 38.7114C113.994 39.9838 113.16 41.5989 112.843 43.3492C112.525 45.1013 112.739 46.9085 113.458 48.5376C113.518 48.6733 113.549 48.8201 113.549 48.9685V49.2268C114.241 50.7403 115.344 52.0312 116.734 52.9516C118.182 53.9109 119.88 54.4259 121.617 54.4332H122.643C126.134 54.4332 129.482 55.8201 131.951 58.2887C134.42 60.7574 135.806 64.1056 135.806 67.5968C135.806 71.088 134.42 74.4362 131.951 76.9048C129.482 79.3735 126.134 80.7604 122.643 80.7604L122.103 80.7603C122.102 80.7603 122.101 80.7604 122.101 80.7604C120.363 80.7677 118.666 81.2826 117.218 82.242C115.768 83.2016 114.632 84.5641 113.947 86.1616L113.942 86.1721C113.223 87.8012 113.009 89.6084 113.327 91.3605C113.644 93.1107 114.478 94.7258 115.72 95.9981C115.722 95.9995 115.723 96.001 115.725 96.0024L116.079 96.3565C116.079 96.3567 116.079 96.3564 116.079 96.3565C117.303 97.579 118.274 99.0311 118.936 100.629C119.599 102.227 119.94 103.94 119.94 105.67C119.94 107.4 119.599 109.113 118.936 110.711C118.274 112.308 117.303 113.76 116.079 114.983C114.857 116.206 113.405 117.177 111.807 117.839C110.209 118.502 108.496 118.843 106.767 118.843C105.037 118.843 103.324 118.502 101.726 117.839C100.128 117.177 98.6762 116.206 97.4537 114.983C97.4536 114.982 97.4539 114.983 97.4537 114.983L97.0992 114.628C97.0977 114.627 97.0963 114.625 97.0949 114.624C95.8226 113.381 94.2074 112.547 92.4573 112.23C90.7051 111.912 88.898 112.127 87.2689 112.846L87.2584 112.85C85.6609 113.535 84.2984 114.672 83.3387 116.121C82.3794 117.569 81.8644 119.267 81.8571 121.004C81.8571 121.005 81.8571 121.005 81.8571 121.006L81.8571 122.03C81.8571 125.521 80.4702 128.869 78.0016 131.338C75.5329 133.807 72.1847 135.194 68.6935 135.194C65.2023 135.194 61.8541 133.807 59.3855 131.338C56.9168 128.869 55.53 125.521 55.53 122.03V121.498C55.4858 119.715 54.9074 117.986 53.8694 116.534C52.8291 115.08 51.3752 113.972 49.6969 113.355C49.6855 113.35 49.6743 113.346 49.6631 113.342C49.6534 113.338 49.6439 113.334 49.6343 113.329C48.0052 112.61 46.1981 112.396 44.4459 112.714C42.6957 113.031 41.0805 113.865 39.8082 115.108C39.8068 115.109 39.8054 115.11 39.804 115.112L39.4499 115.466C38.2274 116.69 36.7756 117.661 35.1776 118.323C33.5795 118.986 31.8666 119.327 30.1367 119.327C28.4068 119.327 26.6939 118.986 25.0958 118.323C23.4978 117.661 22.046 116.69 20.8235 115.466C19.6 114.244 18.6293 112.792 17.967 111.194C17.3046 109.596 16.9636 107.884 16.9636 106.154C16.9636 104.424 17.3046 102.711 17.967 101.113C18.6294 99.5149 19.6002 98.0632 20.8239 96.8408C20.824 96.8407 20.8237 96.8409 20.8239 96.8408L21.1785 96.4863C21.1798 96.4849 21.1812 96.4836 21.1825 96.4822C22.4255 95.2099 23.2593 93.5946 23.5767 91.8444C23.8944 90.0922 23.6799 88.2851 22.9609 86.656L22.9563 86.6455C22.2716 85.048 21.1348 83.6855 19.6857 82.7258C18.2371 81.7665 16.5398 81.2515 14.8024 81.2442C14.8017 81.2442 14.8011 81.2442 14.8004 81.2442L13.7765 81.2442C10.2853 81.2442 6.93709 79.8573 4.46844 77.3887C1.99979 74.92 0.612915 71.5718 0.612915 68.0806C0.612915 64.5894 1.99979 61.2412 4.46844 58.7726C6.93709 56.3039 10.2853 54.917 13.7765 54.917H14.308C16.0915 54.8729 17.8208 54.2945 19.2721 53.2565C20.7266 52.2162 21.8345 50.7623 22.4518 49.084C22.4596 49.0629 22.468 49.042 22.4771 49.0214C23.1961 47.3923 23.4105 45.5852 23.0928 43.833C22.7755 42.0828 21.9416 40.4675 20.6986 39.1952L20.3405 38.837C19.1165 37.6145 18.1456 36.1627 17.4832 34.5646C16.8207 32.9666 16.4797 31.2537 16.4797 29.5238C16.4797 27.7939 16.8207 26.0809 17.4832 24.4829C18.1456 22.8849 19.1165 21.4331 20.3405 20.2105C21.5628 18.987 23.0143 18.0164 24.612 17.3541C26.21 16.6917 27.9229 16.3507 29.6528 16.3507C31.3827 16.3507 33.0957 16.6917 34.6937 17.3541C36.2916 18.0165 37.7432 18.9873 38.9657 20.211C38.9658 20.2111 38.9655 20.2108 38.9657 20.211L39.3243 20.5697C40.5967 21.8126 42.2119 22.6464 43.9621 22.9638C45.7142 23.2815 47.5214 23.067 49.1505 22.348C49.2863 22.2881 49.433 22.2571 49.5814 22.2571H49.8397C51.3532 21.5652 52.6441 20.4626 53.5645 19.0728C54.5238 17.6242 55.0388 15.9269 55.0461 14.1895V13.1636C55.0461 9.67238 56.433 6.32417 58.9016 3.85552Z" fill="black"/>
</svg>
